<svg width="1020" height="603" viewBox="0 0 1020 603" fill="none" xmlns="http://www.w3.org/2000/svg">
<g id="GrassHill">
<rect width="1020" height="603" fill="white"/>
<g id="sun">
<path id="Subtract" fill-rule="evenodd" clip-rule="evenodd" d="M513.691 438.419C512.518 436.527 509.766 436.527 508.592 438.419L501.817 449.343C501.045 450.587 499.489 451.092 498.134 450.54L486.231 445.684C484.17 444.844 481.943 446.461 482.106 448.681L483.046 461.502C483.153 462.962 482.191 464.285 480.77 464.635L468.286 467.703C466.124 468.234 465.274 470.852 466.71 472.552L475.006 482.372C475.951 483.49 475.951 485.126 475.006 486.244L466.71 496.064C465.274 497.765 466.124 500.382 468.286 500.914L480.77 503.982C482.191 504.331 483.153 505.655 483.046 507.115L482.106 519.935C481.943 522.155 484.17 523.773 486.231 522.932L498.134 518.077C499.489 517.524 501.045 518.03 501.817 519.274L508.592 530.198C509.766 532.09 512.518 532.09 513.691 530.198L520.467 519.274C521.239 518.03 522.795 517.524 524.15 518.077L536.053 522.932C538.114 523.773 540.34 522.155 540.178 519.935L539.238 507.115C539.131 505.655 540.093 504.331 541.514 503.982L553.998 500.914C556.159 500.382 557.01 497.765 555.573 496.064L547.277 486.244C546.333 485.126 546.333 483.49 547.277 482.372L555.573 472.552C557.01 470.852 556.159 468.234 553.998 467.703L541.514 464.635C540.093 464.285 539.131 462.962 539.238 461.502L540.178 448.681C540.34 446.461 538.114 444.844 536.053 445.684L524.15 450.54C522.795 451.092 521.239 450.587 520.467 449.343L513.691 438.419ZM511.142 513.308C527.158 513.308 540.142 500.325 540.142 484.308C540.142 468.292 527.158 455.308 511.142 455.308C495.126 455.308 482.142 468.292 482.142 484.308C482.142 500.325 495.126 513.308 511.142 513.308Z" fill="#FFF493"/>
<circle id="Ellipse 10" cx="511.142" cy="484.308" r="25" fill="#FFDD64"/>
</g>
<g id="moon">
<circle id="Ellipse 12" cx="510.5" cy="141.5" r="27.5" fill="#FEFFC7"/>
<circle id="Ellipse 13" cx="499" cy="127" r="5" fill="#E5E6B9"/>
<circle id="Ellipse 14" cx="519" cy="150" r="9" fill="#E5E5B9"/>
</g>
<path id="ground" d="M51.5105 601.5C51.6077 599.152 52.3784 596.284 53.8266 592.949C55.3767 589.379 57.6896 585.304 60.7347 580.805C66.8246 571.806 75.8202 561.144 87.4269 549.474C110.639 526.135 144.26 498.8 185.875 472.726C269.107 420.576 384.266 373.5 512 373.5C639.736 373.5 758.272 420.577 844.883 472.731C888.186 498.806 923.496 526.143 947.973 549.483C960.213 561.154 969.735 571.817 976.193 580.816C979.422 585.315 981.879 589.39 983.526 592.959C985.066 596.294 985.885 599.158 985.989 601.5H985.699H985.296H984.891H984.484H984.075H983.664H983.252H982.837H982.421H982.002H981.582H981.16H980.736H980.31H979.882H979.452H979.02H978.586H978.151H977.713H977.274H976.833H976.389H975.944H975.497H975.048H974.597H974.144H973.69H973.233H972.774H972.314H971.851H971.387H970.921H970.452H969.982H969.51H969.036H968.56H968.082H967.602H967.12H966.637H966.151H965.663H965.174H964.682H964.189H963.693H963.196H962.697H962.196H961.692H961.187H960.68H960.171H959.66H959.147H958.632H958.115H957.597H957.076H956.553H956.029H955.502H954.973H954.443H953.91H953.376H952.839H952.301H951.76H951.218H950.674H950.127H949.579H949.029H948.477H947.923H947.366H946.808H946.248H945.686H945.122H944.556H943.988H943.418H942.846H942.272H941.696H941.118H940.538H939.956H939.372H938.786H938.198H937.609H937.017H936.423H935.827H935.229H934.629H934.027H933.423H932.818H932.21H931.6H930.988H930.374H929.758H929.14H928.52H927.899H927.275H926.649H926.021H925.391H924.759H924.125H923.489H922.851H922.211H921.569H920.925H920.279H919.631H918.981H918.329H917.674H917.018H916.36H915.7H915.038H914.373H913.707H913.039H912.368H911.696H911.021H910.345H909.666H908.986H908.303H907.619H906.932H906.243H905.553H904.86H904.165H903.468H902.769H902.068H901.365H900.66H899.953H899.244H898.533H897.819H897.104H896.387H895.667H894.946H894.222H893.497H892.769H892.039H891.307H890.574H889.838H889.1H888.36H887.618H886.873H886.127H885.379H884.629H883.876H883.122H882.365H881.606H880.846H880.083H879.318H878.551H877.782H877.011H876.238H875.462H874.685H873.905H873.124H872.34H871.555H870.767H869.977H869.185H868.391H867.595H866.796H865.996H865.194H864.389H863.582H862.774H861.963H861.15H860.335H859.518H858.698H857.877H857.054H856.228H855.4H854.571H853.739H852.905H852.069H851.231H850.39H849.548H848.703H847.857H847.008H846.157H845.304H844.449H843.591H842.732H841.871H841.007H840.141H839.273H838.403H837.531H836.657H835.781H834.902H834.021H833.139H832.254H831.367H830.478H829.586H828.693H827.797H826.899H826H825.098H824.193H823.287H822.379H821.468H820.555H819.64H818.723H817.804H816.883H815.959H815.034H814.106H813.176H812.244H811.31H810.373H809.435H808.494H807.551H806.606H805.659H804.71H803.758H802.804H801.848H800.89H799.93H798.968H798.003H797.037H796.068H795.097H794.123H793.148H792.17H791.191H790.209H789.225H788.238H787.25H786.259H785.266H784.271H783.274H782.275H781.273H780.269H779.263H778.255H777.245H776.232H775.218H774.201H773.182H772.16H771.137H770.111H769.083H768.053H767.021H765.986H764.95H763.911H762.87H761.826H760.781H759.733H758.683H757.631H756.577H755.52H754.461H753.4H752.337H751.272H750.204H749.134H748.062H746.988H745.911H744.833H743.752H742.668H741.583H740.495H739.406H738.313H737.219H736.123H735.024H733.923H732.82H731.714H730.606H729.497H728.384H727.27H726.153H725.034H723.913H722.79H721.664H720.536H719.406H718.274H717.139H716.003H714.863H713.722H712.579H711.433H710.285H709.134H707.982H706.827H705.67H704.51H703.349H702.185H701.019H699.85H698.68H697.507H696.332H695.154H693.974H692.792H691.608H690.422H689.233H688.042H686.848H685.653H684.455H683.255H682.052H680.848H679.641H678.431H677.22H676.006H674.79H673.571H672.351H671.128H669.903H668.675H667.445H666.213H664.979H663.742H662.503H661.262H660.018H658.772H657.524H656.274H655.021H653.766H652.509H651.249H649.987H648.723H647.456H646.187H644.916H643.643H642.367H641.089H639.808H638.526H637.241H635.953H634.664H633.372H632.078H630.781H629.482H628.181H626.877H625.571H624.263H622.953H621.64H620.325H619.007H617.687H616.365H615.041H613.714H612.385H611.053H609.72H608.384H607.045H605.704H604.361H603.016H601.668H600.318H598.965H597.611H596.253H594.894H593.532H592.168H590.801H589.432H588.061H586.688H585.312H583.933H582.553H581.17H579.784H578.397H577.007H575.614H574.219H572.822H571.423H570.021H568.617H567.21H565.801H564.39H562.976H561.56H560.142H558.721H557.298H555.873H554.445H553.014H551.582H550.147H548.709H547.27H545.828H544.383H542.936H541.487H540.035H538.581H537.125H535.666H534.205H532.741H531.275H529.807H528.336H526.863H525.387H523.91H522.429H520.947H519.461H517.974H516.484H514.992H513.497H512H510.503H509.01H507.52H506.033H504.55H503.07H501.593H500.119H498.649H497.182H495.718H494.258H492.8H491.346H489.896H488.448H487.004H485.563H484.125H482.69H481.258H479.83H478.405H476.983H475.564H474.149H472.736H471.327H469.921H468.518H467.118H465.722H464.328H462.938H461.55H460.166H458.785H457.407H456.032H454.661H453.292H451.926H450.564H449.204H447.848H446.495H445.144H443.797H442.453H441.112H439.774H438.439H437.107H435.778H434.451H433.128H431.808H430.491H429.177H427.866H426.558H425.253H423.951H422.651H421.355H420.062H418.771H417.484H416.199H414.917H413.639H412.363H411.09H409.82H408.553H407.289H406.027H404.769H403.513H402.26H401.01H399.763H398.519H397.278H396.039H394.803H393.571H392.34H391.113H389.889H388.667H387.448H386.232H385.019H383.808H382.601H381.396H380.193H378.994H377.797H376.603H375.412H374.223H373.038H371.855H370.674H369.497H368.322H367.149H365.98H364.813H363.649H362.487H361.328H360.172H359.019H357.868H356.719H355.574H354.431H353.29H352.153H351.018H349.885H348.755H347.628H346.503H345.381H344.262H343.145H342.03H340.918H339.809H338.702H337.598H336.497H335.397H334.301H333.207H332.115H331.026H329.94H328.856H327.774H326.695H325.619H324.545H323.473H322.404H321.337H320.273H319.211H318.152H317.095H316.04H314.988H313.939H312.892H311.847H310.804H309.764H308.727H307.692H306.659H305.628H304.6H303.574H302.551H301.53H300.511H299.495H298.481H297.469H296.46H295.453H294.448H293.446H292.446H291.448H290.452H289.459H288.468H287.479H286.493H285.509H284.527H283.547H282.57H281.594H280.621H279.651H278.682H277.716H276.752H275.79H274.83H273.872H272.917H271.964H271.013H270.064H269.117H268.173H267.231H266.29H265.352H264.416H263.482H262.551H261.621H260.694H259.768H258.845H257.924H257.005H256.088H255.173H254.26H253.349H252.44H251.534H250.629H249.726H248.826H247.927H247.031H246.136H245.244H244.353H243.465H242.578H241.694H240.811H239.931H239.052H238.175H237.301H236.428H235.557H234.689H233.822H232.957H232.094H231.233H230.373H229.516H228.661H227.807H226.956H226.106H225.258H224.412H223.568H222.726H221.886H221.047H220.21H219.376H218.543H217.711H216.882H216.055H215.229H214.405H213.583H212.762H211.944H211.127H210.312H209.499H208.688H207.878H207.07H206.264H205.459H204.657H203.856H203.056H202.259H201.463H200.669H199.877H199.086H198.297H197.509H196.724H195.94H195.157H194.377H193.598H192.82H192.045H191.271H190.498H189.727H188.958H188.191H187.425H186.66H185.897H185.136H184.377H183.619H182.862H182.107H181.354H180.602H179.852H179.103H178.356H177.611H176.867H176.124H175.383H174.644H173.906H173.169H172.434H171.701H170.969H170.238H169.509H168.781H168.055H167.331H166.607H165.885H165.165H164.446H163.729H163.013H162.298H161.585H160.873H160.162H159.453H158.745H158.039H157.334H156.631H155.928H155.227H154.528H153.83H153.133H152.437H151.743H151.05H150.359H149.669H148.98H148.292H147.606H146.921H146.237H145.555H144.873H144.193H143.515H142.837H142.161H141.486H140.812H140.14H139.469H138.799H138.13H137.462H136.796H136.13H135.466H134.804H134.142H133.481H132.822H132.164H131.507H130.851H130.196H129.543H128.89H128.239H127.589H126.94H126.292H125.645H124.999H124.354H123.711H123.068H122.427H121.786H121.147H120.509H119.871H119.235H118.6H117.966H117.333H116.701H116.07H115.44H114.811H114.183H113.556H112.93H112.305H111.681H111.057H110.435H109.814H109.194H108.575H107.956H107.339H106.722H106.107H105.492H104.879H104.266H103.654H103.043H102.433H101.823H101.215H100.608H100.001H99.3953H98.7904H98.1864H97.5832H96.9808H96.3793H95.7786H95.1787H94.5796H93.9814H93.3839H92.7873H92.1914H91.5964H91.0021H90.4086H89.8158H89.2238H88.6326H88.0421H87.4524H86.8634H86.2752H85.6877H85.1009H84.5148H83.9294H83.3448H82.7608H82.1776H81.595H81.0131H80.4319H79.8513H79.2715H78.6922H78.1137H77.5358H76.9585H76.3819H75.8059H75.2305H74.6558H74.0816H73.5081H72.9352H72.3628H71.7911H71.2199H70.6494H70.0794H69.5099H68.9411H68.3728H67.805H67.2378H66.6711H66.105H65.5394H64.9743H64.4097H63.8456H63.2821H62.719H62.1565H61.5944H61.0328H60.4717H59.911H59.3508H58.7911H58.2319H57.673H57.1147H56.5567H55.9992H55.4421H54.8854H54.3292H53.7733H53.2179H52.6628H52.1082H51.5539H51.5105Z" fill="#A3CB90" stroke="black"/>
<path id="river" d="M376.692 462.431C347.989 481.079 196.61 563.059 134 601.5H364.5C364.5 601.5 363.096 527.151 387.77 513.987C412.444 500.824 455.246 481.628 413.451 416.36L393.5 386L367.5 392.5C367.5 392.5 405.394 443.783 376.692 462.431Z" fill="#9EECFD" stroke="black"/>
<g id="tree">
<path id="Rectangle 4" d="M222.862 402.913H244.991V489.471C237.27 496.605 231.546 501.647 222.862 501.833V402.913Z" fill="#7E7272" stroke="black"/>
<path id="Union" d="M194.545 351.318L233.927 224.486L273.308 351.318H265.574H264.891L265.097 351.969L281.316 403.178H272.651H271.969L272.175 403.828L291.332 464.525H176.522L195.679 403.828L195.884 403.178H195.202H186.537L202.756 351.969L202.962 351.318H202.279H194.545Z" fill="#618E76" stroke="black"/>
</g>
<g id="tree_2">
<path id="Rectangle 4_2" d="M314.733 433.968C312.856 434.813 310.851 435.413 309.123 435.63L308.527 386.088H319.694V430.685C318.541 431.907 316.735 433.066 314.733 433.968Z" fill="#7E7272" stroke="black"/>
<path id="Union_2" d="M293.702 358.459L314.108 292.741L334.513 358.459H330.764H330.081L330.288 359.11L338.726 385.754H334.489H333.807L334.012 386.404L343.998 418.042H284.218L294.203 386.404L294.408 385.754H293.726H289.49L297.928 359.11L298.134 358.459H297.451H293.702Z" fill="#618E76" stroke="black"/>
</g>
<g id="tree_3">
<path id="Rectangle 4_3" d="M460.89 393.533L460.529 363.498H466.991V392.643C465.567 393.053 463.128 393.477 460.89 393.533Z" fill="#7E7272" stroke="black"/>
<path id="Union_3" d="M451.5 346.161L463.757 306.686L476.014 346.161H473.976H473.293L473.499 346.812L478.597 362.907H476.261H475.579L475.784 363.557L481.831 382.716H445.682L451.729 363.557L451.934 362.907H451.252H448.917L454.014 346.812L454.221 346.161H453.538H451.5Z" fill="#618E76" stroke="black"/>
</g>
<g id="tree_4">
<path id="Rectangle 4_4" d="M721.807 421.838L722.305 380.458H713.139V418.125C713.195 418.176 713.25 418.227 713.305 418.278C714.902 419.757 716.067 420.835 717.324 421.461C718.539 422.066 719.866 422.254 721.807 421.838Z" fill="#7E7272" stroke="black"/>
<path id="Union_4" d="M731.167 357.857L738.185 380.015H734.756H734.074L734.28 380.665L742.59 406.996H692.86L701.17 380.665L701.376 380.015H700.693H697.265L704.283 357.857L704.489 357.206H703.806H700.785L717.725 302.649L734.665 357.206H731.644H730.961L731.167 357.857Z" fill="#618E76" stroke="black"/>
</g>
<g id="tree_5">
<path id="Rectangle 4_5" d="M679.775 544.442L680.917 449.477H658.859V535.79C659.066 535.981 659.269 536.169 659.47 536.355C663.056 539.676 665.763 542.183 668.698 543.644C671.713 545.144 674.997 545.548 679.775 544.442Z" fill="#7E7272" stroke="black"/>
<path id="Union_5" d="M700.973 398.674L717.146 449.738H708.507H707.825L708.031 450.389L727.133 510.913H612.649L631.752 450.389L631.957 449.738H631.275H622.637L638.809 398.674L639.016 398.023H638.333H630.623L669.891 271.554L709.16 398.023H701.45H700.767L700.973 398.674Z" fill="#618E76" stroke="black"/>
</g>
<g id="house">
<path id="Vector 45" d="M565.967 344.872L565.967 357.031L547.729 347.597L547.729 344.872L563.241 343.615L565.967 344.872Z" fill="#7E7272" stroke="black"/>
<path id="Vector 41" d="M616.696 374.429L534.389 340.779L575.61 361.852L626.129 381.976L616.696 374.429Z" fill="#51432F" stroke="black"/>
<g id="Vector 38">
<path d="M533.894 340.47L575.609 362.062L621.793 380.299L617.325 376.945L617.325 366.673L621.307 366.673L623.823 367.721L623.823 381.347L626.129 381.976L626.129 398.956L575.609 401.052L497 401.052L497 365.835L533.894 340.47Z" fill="#7E7272"/>
<path d="M575.609 362.062L533.894 340.47L497 365.835L497 401.052L575.609 401.052M575.609 362.062L621.793 380.299L617.325 376.945L617.325 366.673L621.307 366.673L623.823 367.721L623.823 381.347L626.129 381.976L626.129 398.956L575.609 401.052M575.609 362.062L575.609 401.052" stroke="black"/>
</g>
<g id="Vector 40">
<path d="M533.894 343.615C548.465 351.228 572.884 364.158 572.884 364.158L572.884 366.673L572.884 401.052L533.894 401.052L499.725 401.052L499.725 369.818L499.725 366.673L533.894 343.615Z" fill="#FFDD64"/>
<path d="M533.894 343.615C548.465 351.228 572.884 364.158 572.884 364.158L572.884 366.673M533.894 343.615C533.894 366.045 533.894 401.052 533.894 401.052M533.894 343.615L499.725 366.673L499.725 369.818M533.894 401.052L572.884 401.052L572.884 366.673M533.894 401.052L499.725 401.052L499.725 369.818M499.725 369.818L572.884 366.673" stroke="black"/>
</g>
<path id="Vector 43" d="M596.362 400.004L596.362 374.639L623.194 387.426L623.194 399.165L596.362 400.004Z" stroke="black"/>
<path id="Vector 42" d="M619.211 383.863L596.362 374.639L602.546 380.894L623.404 387.426L619.211 383.863Z" fill="#51432F" stroke="black"/>
<path id="Vector 44" d="M623.188 399.199L623.188 387.515L602.156 381.284L602.156 399.978L623.188 399.199Z" stroke="black"/>
<g id="Ellipse 11">
<path d="M560.097 340.629C560.097 340.8 559.567 340.905 559.049 341.018C558.516 341.134 558.193 341.258 557.372 341.258C556.436 341.258 555.813 341.164 555.276 341.018C554.882 340.911 554.437 340.776 554.437 340.629C554.437 340.282 555.751 340 557.372 340C558.993 340 560.097 340.282 560.097 340.629Z" fill="#333339"/>
<path d="M557.372 341.258C556.436 341.258 555.813 341.164 555.276 341.018L554.856 344.244L559.258 343.824L559.049 341.018C558.516 341.134 558.193 341.258 557.372 341.258Z" fill="#333339"/>
</g>
</g>
<g id="tree_6">
<path id="Rectangle 4_6" d="M504.629 410.912L505.127 369.495H495.961V410.902C497.782 411.437 499.146 411.694 500.448 411.694C501.742 411.694 503.007 411.44 504.629 410.912Z" fill="#7E7272" stroke="black"/>
<path id="Union_6" d="M513.989 346.894L521.007 369.052H517.579H516.896L517.102 369.702L525.412 396.032H475.682L483.993 369.702L484.198 369.052H483.516H480.088L487.105 346.894L487.311 346.243H486.629H483.607L500.547 291.686L517.487 346.243H514.466H513.783L513.989 346.894Z" fill="#618E76" stroke="black"/>
</g>
<path id="largeRock" d="M262.559 503H240.854C236.927 502.281 235.324 501.147 234 497.977C235.698 490.887 238.484 489.366 241.996 485.419C244.923 479.804 246.308 477.039 251.706 476C257.931 478.889 261.256 481.243 265.986 489.186C266.089 496.281 265.698 499.73 262.559 503Z" fill="#C4C4C4" stroke="black"/>
<path id="smallRock" d="M258.335 497.173L268.145 486.689C270.194 485.099 271.35 484.808 273.155 485.519C275.086 489.36 274.406 491.354 274.321 494.733C275.135 498.539 275.562 500.387 273.518 503.437C269.604 505.212 267.206 505.816 262.044 504.715C259.296 501.742 258.16 500.084 258.335 497.173Z" fill="#C4C4C4" stroke="black"/>
<g id="smileCould">
<path id="Union_7" d="M254.706 117.022L255.219 116.968L255.15 116.457C254.972 115.148 254.88 113.82 254.88 112.476C254.88 101.498 260.982 91.5155 270.933 84.2592C280.884 77.0032 294.655 72.5 309.889 72.5C333.763 72.5 353.995 83.5492 361.631 98.8799L361.78 99.1788L362.113 99.1557C363.007 99.094 363.909 99.0625 364.82 99.0625C385.321 99.0625 401.904 114.998 401.904 134.612C401.904 144.403 397.066 153.765 389.99 160.45C382.911 167.139 373.653 171.093 364.872 170.164L364.846 170.161H364.82L280.566 170.161H280.441L280.331 170.22C274.413 173.374 267.275 175.22 259.584 175.22C238.987 175.22 222.5 162.033 222.5 145.996C222.5 131.247 236.432 118.915 254.706 117.022Z" fill="#FCEDFD" stroke="black"/>
<path id="Ellipse 4" d="M317.493 124.069C317.613 122.395 318.331 120.813 319.525 119.619C320.838 118.306 322.618 117.569 324.475 117.569C326.331 117.569 328.112 118.306 329.425 119.619C330.619 120.813 331.337 122.395 331.457 124.069L330.201 124.069C330.084 122.728 329.499 121.464 328.539 120.504C327.461 119.427 325.999 118.821 324.475 118.821C322.95 118.821 321.488 119.427 320.411 120.504C319.451 121.464 318.866 122.728 318.749 124.069H317.493Z" fill="#624A4A" stroke="black"/>
<path id="Ellipse 5" d="M286.518 124C286.638 122.326 287.356 120.745 288.55 119.55C289.863 118.237 291.643 117.5 293.5 117.5C295.357 117.5 297.137 118.237 298.45 119.55C299.644 120.745 300.362 122.326 300.482 124L299.226 124C299.109 122.659 298.524 121.395 297.564 120.436C296.486 119.358 295.024 118.752 293.5 118.752C291.976 118.752 290.514 119.358 289.436 120.436C288.476 121.395 287.891 122.659 287.774 124H286.518Z" fill="#624A4A" stroke="black"/>
</g>
<path id="smallCloud" d="M411.71 167.488L411.196 167.435L411.266 166.923C411.361 166.226 411.41 165.52 411.41 164.805C411.41 158.97 408.148 153.644 402.785 149.757C397.422 145.87 389.989 143.451 381.756 143.451C368.844 143.451 357.95 149.391 353.853 157.568L353.704 157.865L353.371 157.842C352.891 157.809 352.406 157.793 351.917 157.793C340.894 157.793 332 166.305 332 176.756C332 181.966 334.592 186.963 338.399 190.538C342.209 194.117 347.176 196.216 351.864 195.722L351.89 195.72H351.917L397.685 195.72H397.81L397.92 195.778C401.1 197.463 404.941 198.451 409.083 198.451C420.202 198.451 429 191.384 429 182.902C429 175.101 421.569 168.503 411.71 167.488Z" fill="#FCEDFD" stroke="black"/>
<g id="sittingDown">
<path id="Vector 31" d="M466.571 526.563C465.004 528.321 447.162 561.999 428.499 555.571L447.872 567.414C460.7 529.48 483.8 562.939 498.779 541.744C489.828 545.162 499.916 527.246 502.815 522.846C495.643 525.38 490.124 546.736 478.433 536.918C489.51 537.886 484.005 537.694 496.03 524.439C483.103 530.625 480.992 510.385 466.571 526.563Z" fill="#9795EF" stroke="black"/>
<path id="Vector 27" d="M399.392 547.848C402.908 539.899 415.175 537.786 414.4 542.605C416.235 551.087 418.174 544.62 415.051 569.827L413.572 579.026C404.887 583.251 400.418 581.186 391.853 574.849L399.392 547.848Z" fill="#C4C4C4" stroke="black"/>
<path id="Vector 28" d="M394.855 564.703L391.887 574.639C400.132 581.134 405.031 583.414 413.607 578.815L414.864 570.991C408.068 564.682 404.832 562.119 394.855 564.703Z" fill="#E7E3E3" stroke="black"/>
<path id="Vector 23" d="M475.807 547.496C472.25 539.454 459.841 537.317 460.625 542.192C458.768 550.772 456.807 544.231 459.966 569.73L461.462 579.036C470.248 583.309 474.769 581.221 483.434 574.811L475.807 547.496Z" fill="#C4C4C4" stroke="black"/>
<path id="Ellipse 2" d="M469.599 541.263C469.599 553.009 466.905 560.808 461.451 565.689C455.984 570.581 447.635 572.643 436.082 572.643C424.523 572.643 417.292 570.578 412.918 565.727C408.531 560.86 406.899 553.063 406.899 541.263C406.899 529.524 409.69 518.94 415.029 511.306C420.356 503.689 428.228 498.992 438.479 498.992C448.729 498.992 456.485 503.688 461.697 511.302C466.922 518.935 469.599 529.52 469.599 541.263Z" fill="#C4C4C4" stroke="black"/>
<g id="head">
<g id="Vector 5">
<path d="M461.366 446.949C472.251 450.118 472.833 451.557 480.791 455.762C476.618 456.707 475.595 457.575 468.08 455.283C469.44 456.64 476.187 457.336 478.835 459.382C470.345 458.669 471.351 458.823 470.287 459.382C477.468 460.716 483.413 462.968 485.421 468.039C477.529 466.967 476.368 470.523 474.415 470.379C494.315 472.5 482.144 488.983 494.355 496.368C477.807 494.48 477.272 486.763 470.245 483.063C473.152 492.565 476.2 496.712 485.421 500.96H478.835L490.432 503.666C485.612 504.013 473.741 505.654 477.404 510.533C467.693 515.326 462.345 513.537 452.876 507.228L461.366 446.949Z" fill="#9795EF"/>
<path d="M461.366 446.949C472.251 450.118 472.833 451.557 480.791 455.762C476.618 456.707 475.595 457.575 468.08 455.283C469.44 456.64 476.187 457.336 478.835 459.382C470.345 458.669 471.351 458.823 470.287 459.382C477.468 460.716 483.413 462.968 485.421 468.039C477.397 466.949 476.331 470.643 474.316 470.369C494.355 472.445 482.124 488.971 494.355 496.368C477.807 494.48 477.272 486.763 470.245 483.063C473.152 492.565 476.2 496.712 485.421 500.96H478.835L490.432 503.666C485.612 504.013 473.741 505.654 477.404 510.533C467.693 515.326 462.345 513.537 452.876 507.228L461.366 446.949Z" stroke="black"/>
</g>
<path id="Vector 4" d="M409.052 431.757C399.468 427.349 397.615 429.084 401.715 439.782L408.239 453.831C412.489 445.549 415.722 442.196 422.687 438.028L409.052 431.757Z" fill="#C4C4C4" stroke="black"/>
<path id="Vector 7" d="M410.538 436.746C406.346 434.582 405.601 435.265 407.615 439.943L410.745 446.12C412.347 442.722 413.639 441.391 416.5 439.825L410.538 436.746Z" fill="#E7E3E3" stroke="black"/>
<path id="Vector 3" d="M472.606 439.682C477.019 429.812 475.562 427.673 465.809 431.107L452.943 436.837C460.124 442.129 462.955 445.892 466.328 453.723L472.606 439.682Z" fill="#C4C4C4" stroke="black"/>
<path id="Vector 6" d="M467.199 440.127C469.301 436.038 468.773 435.24 464.693 436.966L459.275 439.719C462.037 441.56 463.075 442.952 464.208 445.944L467.199 440.127Z" fill="#E7E3E3" stroke="black"/>
<path id="Ellipse 1" d="M469.787 469.613C469.787 479.896 467.568 490.814 462.433 499.142C457.312 507.448 449.297 513.181 437.623 513.181C425.95 513.181 417.934 507.448 412.814 499.142C407.679 490.814 405.459 479.896 405.459 469.613C405.459 449.135 419.922 432.654 437.623 432.654C455.325 432.654 469.787 449.135 469.787 469.613Z" fill="#C4C4C4" stroke="black"/>
<path id="Vector 2" d="M453.06 435.794C420.638 423.769 405.863 447.755 408.309 454.051C410.467 451.218 436.944 461.448 451.621 472.937C446.872 468.216 449.308 466.934 440.829 462.392C448.027 464.453 450.498 466.305 454.499 469.79L450.47 464.281C458.488 473.972 462.82 472.954 474.788 479.705C470.759 471.521 463.099 471.07 463.996 464.281C464.268 468.872 468.996 472.636 478.673 479.705C474.788 467.586 468.744 441.611 453.06 435.794Z" fill="#9795EF" stroke="black"/>
<path id="Vector 1" d="M442.397 414.998C437.608 389.231 437.288 389.145 432.02 414.998L427.551 445.06C435.531 448.461 440.004 448.423 447.984 445.06L442.397 414.998Z" fill="#F4F0C6" stroke="black"/>
<path id="Vector 11" d="M441 408.389C438.554 411.064 435.244 410.435 432.51 414.212L430.64 424.914C433.661 420.193 441 421.294 442.727 417.045L441 408.389Z" stroke="black"/>
<path id="Rectangle 2" d="M428.702 498.174C428.702 496.92 429.857 495.985 431.084 496.246L432.693 496.588C433.412 496.741 433.965 497.315 434.091 498.039V498.039C434.283 499.139 433.436 500.146 432.319 500.146H430.674C429.585 500.146 428.702 499.263 428.702 498.174V498.174Z" fill="#E7E3E3"/>
<path id="Rectangle 3" d="M446.388 498.558C446.388 497.304 445.233 496.368 444.007 496.629L442.398 496.971C441.679 497.124 441.126 497.699 441 498.422V498.422C440.808 499.522 441.655 500.529 442.772 500.529H444.417C445.506 500.529 446.388 499.647 446.388 498.558V498.558Z" fill="#E7E3E3"/>
<path id="Ellipse 3" d="M418.054 483.66C418.054 481.698 418.766 479.816 420.035 478.429C421.303 477.042 423.023 476.263 424.817 476.263C426.61 476.263 428.331 477.042 429.599 478.429C430.867 479.816 431.58 481.698 431.58 483.66L429.549 483.66C429.549 482.287 429.05 480.971 428.163 480C427.275 479.029 426.072 478.484 424.817 478.484C423.562 478.484 422.358 479.029 421.471 480C420.583 480.971 420.085 482.287 420.085 483.66L418.054 483.66Z" fill="#624A4A"/>
<path id="Ellipse 4_2" d="M442.516 483.66C442.516 481.698 443.229 479.816 444.497 478.429C445.765 477.042 447.485 476.263 449.279 476.263C451.073 476.263 452.793 477.042 454.061 478.429C455.33 479.816 456.042 481.698 456.042 483.66L454.011 483.66C454.011 482.287 453.513 480.971 452.625 480C451.738 479.029 450.534 478.484 449.279 478.484C448.024 478.484 446.82 479.029 445.933 480C445.046 480.971 444.547 482.287 444.547 483.66L442.516 483.66Z" fill="#624A4A"/>
<path id="Vector 12" d="M444.31 425.387C440.137 430.423 433.949 427.433 429.201 433.256L428.05 441.44C433.23 435.459 441.432 438.922 445.893 433.256L444.31 425.387Z" stroke="black"/>
</g>
<path id="Vector 24" d="M480.397 564.547L483.4 574.597C475.059 581.168 470.103 583.475 461.428 578.823L460.156 570.907C467.03 564.525 470.305 561.933 480.397 564.547Z" fill="#E7E3E3" stroke="black"/>
<path id="Vector 25" d="M455.499 519.347C450.537 543.405 448.146 554.248 441.932 564.885C446.641 569.003 450.143 569.439 456.966 568.958" stroke="black"/>
<path id="Vector 26" d="M441.995 564.849C442.018 566.242 450.628 570.64 457.966 568.94C457.648 571.413 457.333 573.562 456.48 574.258C449.038 575.387 445.251 575.145 439.766 569.758C439.819 567.73 441.995 564.849 441.995 564.849Z" fill="#E7E3E3" stroke="black"/>
<path id="Vector 29" d="M419.374 519.821C422.152 538.005 423.5 548.63 432.94 565.359C428.231 569.477 424.73 569.913 417.907 569.432" stroke="black"/>
<path id="Vector 30" d="M432.878 565.323C432.855 566.716 424.245 571.114 416.907 569.414C417.225 571.887 417.54 574.036 418.392 574.732C425.835 575.861 429.622 575.619 435.107 570.232C435.053 568.204 432.878 565.323 432.878 565.323Z" fill="#E7E3E3" stroke="black"/>
</g>
<path id="Union_8" d="M760.327 124.5H760.253L760.182 124.522C756.015 125.792 751.383 126.5 746.5 126.5C737.335 126.5 729.06 124.004 723.091 119.995C717.118 115.984 713.5 110.496 713.5 104.5C713.5 99.4138 716.101 94.6974 720.537 90.9321C724.973 87.1659 731.222 84.3747 738.43 83.1641L738.663 83.1249L738.781 82.9192C744.632 72.6852 757.722 65.5 773 65.5C787.038 65.5 799.234 71.5676 805.659 80.4962L805.826 80.7285L806.111 80.702C807.547 80.5688 809.012 80.5 810.5 80.5C819.661 80.5 827.932 83.1055 833.901 87.2923C839.871 91.4802 843.5 97.2181 843.5 103.5C843.5 109.782 839.871 115.52 833.901 119.708C827.932 123.895 819.661 126.5 810.5 126.5C805.729 126.5 801.196 125.793 797.104 124.522L797.031 124.5H796.955H760.327Z" fill="#FCEDFD" stroke="black"/>
</g>
</svg>
