<svg width="1020" height="600" viewBox="0 0 1020 600" fill="none" xmlns="http://www.w3.org/2000/svg">
<g id="GrassHill">
<rect width="1020" height="600" fill="white"/>
<g id="stars">
<path id="Star 1" d="M703.181 160.591L701.678 172.851L712.874 178.068L700.75 180.427L699.247 192.687L693.257 181.886L681.133 184.245L689.555 175.21L683.564 164.409L694.759 169.626L703.181 160.591Z" fill="#F7F7F7"/>
<path id="Star 7" d="M598 248L601.817 259.747L614.168 259.747L604.176 267.007L607.992 278.753L598 271.493L588.008 278.753L591.824 267.007L581.832 259.747L594.183 259.747L598 248Z" fill="#F7F7F7"/>
<path id="Star 6" d="M407.853 301.084L413.178 306.547L420.019 303.171L416.469 309.923L421.794 315.386L414.275 314.096L410.725 320.849L409.628 313.3L402.109 312.01L408.95 308.634L407.853 301.084Z" fill="#F7F7F7"/>
<path id="Star 8" d="M597.576 44.1737L603.029 55.2562L615.254 53.4952L606.399 62.1056L611.851 73.1881L600.926 67.4271L592.071 76.0375L594.173 63.8666L583.248 58.1056L595.473 56.3446L597.576 44.1737Z" fill="#F7F7F7"/>
<path id="Star 2" d="M453.978 88.8402L442.749 91.8469L442.138 103.456L435.809 93.7051L424.58 96.7118L431.897 87.6791L425.567 77.9286L436.419 82.0965L443.737 73.0637L443.126 84.6724L453.978 88.8402Z" fill="#F7F7F7"/>
<path id="Star 3" d="M290 199L292.47 206.601H300.462L293.996 211.298L296.466 218.899L290 214.202L283.534 218.899L286.004 211.298L279.538 206.601H287.53L290 199Z" fill="#F7F7F7"/>
<path id="Star 4" d="M475.144 221.211L476.085 229.147L483.924 230.705L476.666 234.052L477.607 241.989L472.181 236.121L464.924 239.468L468.828 232.494L463.402 226.627L471.24 228.185L475.144 221.211Z" fill="#F7F7F7"/>
<path id="Star 5" d="M728 50L730.47 57.6008H738.462L731.996 62.2984L734.466 69.8992L728 65.2016L721.534 69.8992L724.004 62.2984L717.538 57.6008H725.53L728 50Z" fill="#F7F7F7"/>
</g>
<g id="sun">
<path id="Subtract" fill-rule="evenodd" clip-rule="evenodd" d="M513.691 426.419C512.518 424.527 509.766 424.527 508.592 426.419L501.817 437.343C501.045 438.587 499.489 439.092 498.134 438.54L486.231 433.684C484.17 432.844 481.943 434.461 482.106 436.681L483.046 449.502C483.153 450.962 482.191 452.285 480.77 452.635L468.286 455.703C466.124 456.234 465.274 458.852 466.71 460.552L475.006 470.372C475.951 471.49 475.951 473.126 475.006 474.244L466.71 484.064C465.274 485.765 466.124 488.382 468.286 488.914L480.77 491.982C482.191 492.331 483.153 493.655 483.046 495.115L482.106 507.935C481.943 510.155 484.17 511.773 486.231 510.932L498.134 506.077C499.489 505.524 501.045 506.03 501.817 507.274L508.592 518.198C509.766 520.09 512.518 520.09 513.691 518.198L520.467 507.274C521.239 506.03 522.795 505.524 524.15 506.077L536.053 510.932C538.114 511.773 540.34 510.155 540.178 507.935L539.238 495.115C539.131 493.655 540.093 492.331 541.514 491.982L553.998 488.914C556.159 488.382 557.01 485.765 555.573 484.064L547.277 474.244C546.333 473.126 546.333 471.49 547.277 470.372L555.573 460.552C557.01 458.852 556.159 456.234 553.998 455.703L541.514 452.635C540.093 452.285 539.131 450.962 539.238 449.502L540.178 436.681C540.34 434.461 538.114 432.844 536.053 433.684L524.15 438.54C522.795 439.092 521.239 438.587 520.467 437.343L513.691 426.419ZM511.142 501.308C527.158 501.308 540.142 488.325 540.142 472.308C540.142 456.292 527.158 443.308 511.142 443.308C495.126 443.308 482.142 456.292 482.142 472.308C482.142 488.325 495.126 501.308 511.142 501.308Z" fill="#FFF493"/>
<circle id="Ellipse 10" cx="511.142" cy="472.308" r="25" fill="#FFDD64"/>
</g>
<g id="moon">
<circle id="Ellipse 12" cx="510.5" cy="141.5" r="27.5" fill="#FEFFC7"/>
<circle id="Ellipse 13" cx="499" cy="127" r="5" fill="#E5E6B9"/>
<circle id="Ellipse 14" cx="519" cy="150" r="9" fill="#E5E5B9"/>
</g>
<path id="ground" d="M51.5105 589.5C51.6077 587.152 52.3784 584.284 53.8266 580.949C55.3767 577.379 57.6896 573.304 60.7347 568.805C66.8246 559.806 75.8202 549.144 87.4269 537.474C110.639 514.135 144.26 486.8 185.875 460.726C269.107 408.576 384.266 361.5 512 361.5C639.736 361.5 758.272 408.577 844.883 460.731C888.186 486.806 923.496 514.143 947.973 537.483C960.213 549.154 969.735 559.817 976.193 568.816C979.422 573.315 981.879 577.39 983.526 580.959C985.066 584.294 985.885 587.158 985.989 589.5H985.699H985.296H984.891H984.484H984.075H983.664H983.252H982.837H982.421H982.002H981.582H981.16H980.736H980.31H979.882H979.452H979.02H978.586H978.151H977.713H977.274H976.833H976.389H975.944H975.497H975.048H974.597H974.144H973.69H973.233H972.774H972.314H971.851H971.387H970.921H970.452H969.982H969.51H969.036H968.56H968.082H967.602H967.12H966.637H966.151H965.663H965.174H964.682H964.189H963.693H963.196H962.697H962.196H961.692H961.187H960.68H960.171H959.66H959.147H958.632H958.115H957.597H957.076H956.553H956.029H955.502H954.973H954.443H953.91H953.376H952.839H952.301H951.76H951.218H950.674H950.127H949.579H949.029H948.477H947.923H947.366H946.808H946.248H945.686H945.122H944.556H943.988H943.418H942.846H942.272H941.696H941.118H940.538H939.956H939.372H938.786H938.198H937.609H937.017H936.423H935.827H935.229H934.629H934.027H933.423H932.818H932.21H931.6H930.988H930.374H929.758H929.14H928.52H927.899H927.275H926.649H926.021H925.391H924.759H924.125H923.489H922.851H922.211H921.569H920.925H920.279H919.631H918.981H918.329H917.674H917.018H916.36H915.7H915.038H914.373H913.707H913.039H912.368H911.696H911.021H910.345H909.666H908.986H908.303H907.619H906.932H906.243H905.553H904.86H904.165H903.468H902.769H902.068H901.365H900.66H899.953H899.244H898.533H897.819H897.104H896.387H895.667H894.946H894.222H893.497H892.769H892.039H891.307H890.574H889.838H889.1H888.36H887.618H886.873H886.127H885.379H884.629H883.876H883.122H882.365H881.606H880.846H880.083H879.318H878.551H877.782H877.011H876.238H875.462H874.685H873.905H873.124H872.34H871.555H870.767H869.977H869.185H868.391H867.595H866.796H865.996H865.194H864.389H863.582H862.774H861.963H861.15H860.335H859.518H858.698H857.877H857.054H856.228H855.4H854.571H853.739H852.905H852.069H851.231H850.39H849.548H848.703H847.857H847.008H846.157H845.304H844.449H843.591H842.732H841.871H841.007H840.141H839.273H838.403H837.531H836.657H835.781H834.902H834.021H833.139H832.254H831.367H830.478H829.586H828.693H827.797H826.899H826H825.098H824.193H823.287H822.379H821.468H820.555H819.64H818.723H817.804H816.883H815.959H815.034H814.106H813.176H812.244H811.31H810.373H809.435H808.494H807.551H806.606H805.659H804.71H803.758H802.804H801.848H800.89H799.93H798.968H798.003H797.037H796.068H795.097H794.123H793.148H792.17H791.191H790.209H789.225H788.238H787.25H786.259H785.266H784.271H783.274H782.275H781.273H780.269H779.263H778.255H777.245H776.232H775.218H774.201H773.182H772.16H771.137H770.111H769.083H768.053H767.021H765.986H764.95H763.911H762.87H761.826H760.781H759.733H758.683H757.631H756.577H755.52H754.461H753.4H752.337H751.272H750.204H749.134H748.062H746.988H745.911H744.833H743.752H742.668H741.583H740.495H739.406H738.313H737.219H736.123H735.024H733.923H732.82H731.714H730.606H729.497H728.384H727.27H726.153H725.034H723.913H722.79H721.664H720.536H719.406H718.274H717.139H716.003H714.863H713.722H712.579H711.433H710.285H709.134H707.982H706.827H705.67H704.51H703.349H702.185H701.019H699.85H698.68H697.507H696.332H695.154H693.974H692.792H691.608H690.422H689.233H688.042H686.848H685.653H684.455H683.255H682.052H680.848H679.641H678.431H677.22H676.006H674.79H673.571H672.351H671.128H669.903H668.675H667.445H666.213H664.979H663.742H662.503H661.262H660.018H658.772H657.524H656.274H655.021H653.766H652.509H651.249H649.987H648.723H647.456H646.187H644.916H643.643H642.367H641.089H639.808H638.526H637.241H635.953H634.664H633.372H632.078H630.781H629.482H628.181H626.877H625.571H624.263H622.953H621.64H620.325H619.007H617.687H616.365H615.041H613.714H612.385H611.053H609.72H608.384H607.045H605.704H604.361H603.016H601.668H600.318H598.965H597.611H596.253H594.894H593.532H592.168H590.801H589.432H588.061H586.688H585.312H583.933H582.553H581.17H579.784H578.397H577.007H575.614H574.219H572.822H571.423H570.021H568.617H567.21H565.801H564.39H562.976H561.56H560.142H558.721H557.298H555.873H554.445H553.014H551.582H550.147H548.709H547.27H545.828H544.383H542.936H541.487H540.035H538.581H537.125H535.666H534.205H532.741H531.275H529.807H528.336H526.863H525.387H523.91H522.429H520.947H519.461H517.974H516.484H514.992H513.497H512H510.503H509.01H507.52H506.033H504.55H503.07H501.593H500.119H498.649H497.182H495.718H494.258H492.8H491.346H489.896H488.448H487.004H485.563H484.125H482.69H481.258H479.83H478.405H476.983H475.564H474.149H472.736H471.327H469.921H468.518H467.118H465.722H464.328H462.938H461.55H460.166H458.785H457.407H456.032H454.661H453.292H451.926H450.564H449.204H447.848H446.495H445.144H443.797H442.453H441.112H439.774H438.439H437.107H435.778H434.451H433.128H431.808H430.491H429.177H427.866H426.558H425.253H423.951H422.651H421.355H420.062H418.771H417.484H416.199H414.917H413.639H412.363H411.09H409.82H408.553H407.289H406.027H404.769H403.513H402.26H401.01H399.763H398.519H397.278H396.039H394.803H393.571H392.34H391.113H389.889H388.667H387.448H386.232H385.019H383.808H382.601H381.396H380.193H378.994H377.797H376.603H375.412H374.223H373.038H371.855H370.674H369.497H368.322H367.149H365.98H364.813H363.649H362.487H361.328H360.172H359.019H357.868H356.719H355.574H354.431H353.29H352.153H351.018H349.885H348.755H347.628H346.503H345.381H344.262H343.145H342.03H340.918H339.809H338.702H337.598H336.497H335.397H334.301H333.207H332.115H331.026H329.94H328.856H327.774H326.695H325.619H324.545H323.473H322.404H321.337H320.273H319.211H318.152H317.095H316.04H314.988H313.939H312.892H311.847H310.804H309.764H308.727H307.692H306.659H305.628H304.6H303.574H302.551H301.53H300.511H299.495H298.481H297.469H296.46H295.453H294.448H293.446H292.446H291.448H290.452H289.459H288.468H287.479H286.493H285.509H284.527H283.547H282.57H281.594H280.621H279.651H278.682H277.716H276.752H275.79H274.83H273.872H272.917H271.964H271.013H270.064H269.117H268.173H267.231H266.29H265.352H264.416H263.482H262.551H261.621H260.694H259.768H258.845H257.924H257.005H256.088H255.173H254.26H253.349H252.44H251.534H250.629H249.726H248.826H247.927H247.031H246.136H245.244H244.353H243.465H242.578H241.694H240.811H239.931H239.052H238.175H237.301H236.428H235.557H234.689H233.822H232.957H232.094H231.233H230.373H229.516H228.661H227.807H226.956H226.106H225.258H224.412H223.568H222.726H221.886H221.047H220.21H219.376H218.543H217.711H216.882H216.055H215.229H214.405H213.583H212.762H211.944H211.127H210.312H209.499H208.688H207.878H207.07H206.264H205.459H204.657H203.856H203.056H202.259H201.463H200.669H199.877H199.086H198.297H197.509H196.724H195.94H195.157H194.377H193.598H192.82H192.045H191.271H190.498H189.727H188.958H188.191H187.425H186.66H185.897H185.136H184.377H183.619H182.862H182.107H181.354H180.602H179.852H179.103H178.356H177.611H176.867H176.124H175.383H174.644H173.906H173.169H172.434H171.701H170.969H170.238H169.509H168.781H168.055H167.331H166.607H165.885H165.165H164.446H163.729H163.013H162.298H161.585H160.873H160.162H159.453H158.745H158.039H157.334H156.631H155.928H155.227H154.528H153.83H153.133H152.437H151.743H151.05H150.359H149.669H148.98H148.292H147.606H146.921H146.237H145.555H144.873H144.193H143.515H142.837H142.161H141.486H140.812H140.14H139.469H138.799H138.13H137.462H136.796H136.13H135.466H134.804H134.142H133.481H132.822H132.164H131.507H130.851H130.196H129.543H128.89H128.239H127.589H126.94H126.292H125.645H124.999H124.354H123.711H123.068H122.427H121.786H121.147H120.509H119.871H119.235H118.6H117.966H117.333H116.701H116.07H115.44H114.811H114.183H113.556H112.93H112.305H111.681H111.057H110.435H109.814H109.194H108.575H107.956H107.339H106.722H106.107H105.492H104.879H104.266H103.654H103.043H102.433H101.823H101.215H100.608H100.001H99.3953H98.7904H98.1864H97.5832H96.9808H96.3793H95.7786H95.1787H94.5796H93.9814H93.3839H92.7873H92.1914H91.5964H91.0021H90.4086H89.8158H89.2238H88.6326H88.0421H87.4524H86.8634H86.2752H85.6877H85.1009H84.5148H83.9294H83.3448H82.7608H82.1776H81.595H81.0131H80.4319H79.8513H79.2715H78.6922H78.1137H77.5358H76.9585H76.3819H75.8059H75.2305H74.6558H74.0816H73.5081H72.9352H72.3628H71.7911H71.2199H70.6494H70.0794H69.5099H68.9411H68.3728H67.805H67.2378H66.6711H66.105H65.5394H64.9743H64.4097H63.8456H63.2821H62.719H62.1565H61.5944H61.0328H60.4717H59.911H59.3508H58.7911H58.2319H57.673H57.1147H56.5567H55.9992H55.4421H54.8854H54.3292H53.7733H53.2179H52.6628H52.1082H51.5539H51.5105Z" fill="#A3CB90" stroke="black"/>
<g id="Group 10">
<g id="Vector 46">
<path d="M628 395.484L553.5 394L578.5 440H642L628 395.484Z" fill="#F5EC9A"/>
<path d="M578.5 440L553.5 394L528 440H578.5Z" fill="#F5EC9A"/>
<path d="M553.5 394L628 395.484L642 440H578.5M553.5 394L578.5 440M553.5 394L528 440H578.5" stroke="black"/>
</g>
<path id="Vector 47" d="M544.759 440C542.366 425.234 545.717 413.83 553.618 395C545.941 415.159 554.602 440 561 440H544.759Z" fill="#FFDD64" stroke="black"/>
<rect id="Rectangle 5" x="587.5" y="410.5" width="29" height="12" fill="#FFDD64" stroke="black"/>
</g>
<path id="river" d="M376.692 450.431C347.989 469.079 196.61 551.059 134 589.5H364.5C364.5 589.5 363.096 515.151 387.77 501.987C412.444 488.824 455.246 469.628 413.451 404.36L393.5 374L367.5 380.5C367.5 380.5 405.394 431.783 376.692 450.431Z" fill="#9EECFD" stroke="black"/>
<g id="tree">
<path id="Rectangle 4" d="M222.862 402.913H244.991V489.471C237.27 496.605 231.546 501.647 222.862 501.833V402.913Z" fill="#7E7272" stroke="black"/>
<path id="Union" d="M194.545 351.318L233.927 224.486L273.308 351.318H265.574H264.891L265.097 351.969L281.316 403.178H272.651H271.969L272.175 403.828L291.332 464.525H176.522L195.679 403.828L195.884 403.178H195.202H186.537L202.756 351.969L202.962 351.318H202.279H194.545Z" fill="#618E76" stroke="black"/>
</g>
<g id="tree_2">
<path id="Rectangle 4_2" d="M314.733 421.968C312.856 422.813 310.851 423.413 309.123 423.63L308.527 374.088H319.694V418.685C318.541 419.907 316.735 421.066 314.733 421.968Z" fill="#7E7272" stroke="black"/>
<path id="Union_2" d="M293.702 346.459L314.108 280.741L334.513 346.459H330.764H330.081L330.288 347.11L338.726 373.754H334.489H333.807L334.012 374.404L343.998 406.042H284.218L294.203 374.404L294.408 373.754H293.726H289.49L297.928 347.11L298.134 346.459H297.451H293.702Z" fill="#618E76" stroke="black"/>
</g>
<g id="tree_3">
<path id="Rectangle 4_3" d="M460.89 381.533L460.529 351.498H466.991V380.643C465.567 381.053 463.128 381.477 460.89 381.533Z" fill="#7E7272" stroke="black"/>
<path id="Union_3" d="M451.5 334.161L463.757 294.686L476.014 334.161H473.976H473.293L473.499 334.812L478.597 350.907H476.261H475.579L475.784 351.557L481.831 370.716H445.682L451.729 351.557L451.934 350.907H451.252H448.917L454.014 334.812L454.221 334.161H453.538H451.5Z" fill="#618E76" stroke="black"/>
</g>
<g id="tree_4">
<path id="Rectangle 4_4" d="M721.807 421.838L722.305 380.458H713.139V418.125C713.195 418.176 713.25 418.227 713.304 418.278C714.902 419.757 716.067 420.835 717.324 421.461C718.539 422.066 719.866 422.254 721.807 421.838Z" fill="#7E7272" stroke="black"/>
<path id="Union_4" d="M731.167 357.857L738.185 380.015H734.756H734.074L734.28 380.665L742.59 406.996H692.86L701.17 380.665L701.376 380.015H700.693H697.265L704.283 357.857L704.489 357.206H703.806H700.785L717.725 302.649L734.665 357.206H731.644H730.961L731.167 357.857Z" fill="#618E76" stroke="black"/>
</g>
<g id="tree_5">
<path id="Rectangle 4_5" d="M679.775 544.442L680.917 449.477H658.859V535.79C659.066 535.981 659.269 536.169 659.47 536.355C663.056 539.676 665.763 542.183 668.698 543.644C671.713 545.144 674.997 545.548 679.775 544.442Z" fill="#7E7272" stroke="black"/>
<path id="Union_5" d="M700.973 398.674L717.146 449.738H708.507H707.825L708.031 450.389L727.133 510.913H612.649L631.752 450.389L631.957 449.738H631.275H622.637L638.809 398.674L639.016 398.023H638.333H630.623L669.891 271.554L709.16 398.023H701.45H700.767L700.973 398.674Z" fill="#618E76" stroke="black"/>
</g>
<g id="tree_6">
<path id="Rectangle 4_6" d="M503.629 387.912L504.127 346.495H494.961V387.902C496.782 388.437 498.146 388.694 499.448 388.694C500.742 388.694 502.007 388.44 503.629 387.912Z" fill="#7E7272" stroke="black"/>
<path id="Union_6" d="M512.989 323.894L520.007 346.052H516.579H515.896L516.102 346.702L524.412 373.032H474.682L482.993 346.702L483.198 346.052H482.516H479.088L486.105 323.894L486.311 323.243H485.629H482.607L499.547 268.686L516.487 323.243H513.466H512.783L512.989 323.894Z" fill="#618E76" stroke="black"/>
</g>
<path id="largeRock" d="M262.559 503H240.854C236.927 502.281 235.324 501.147 234 497.977C235.698 490.887 238.484 489.366 241.996 485.419C244.923 479.804 246.308 477.039 251.706 476C257.931 478.889 261.256 481.243 265.986 489.186C266.089 496.281 265.698 499.73 262.559 503Z" fill="#C4C4C4" stroke="black"/>
<path id="smallRock" d="M258.335 497.173L268.145 486.689C270.194 485.099 271.35 484.808 273.155 485.519C275.086 489.36 274.406 491.354 274.321 494.733C275.135 498.539 275.562 500.387 273.518 503.437C269.604 505.212 267.206 505.816 262.044 504.715C259.296 501.742 258.16 500.084 258.335 497.173Z" fill="#C4C4C4" stroke="black"/>
<g id="happyCloud">
<path id="Union_7" d="M254.706 117.022L255.219 116.968L255.15 116.457C254.972 115.148 254.88 113.82 254.88 112.476C254.88 101.498 260.982 91.5155 270.933 84.2592C280.884 77.0032 294.655 72.5 309.889 72.5C333.763 72.5 353.995 83.5492 361.631 98.8799L361.78 99.1788L362.113 99.1557C363.007 99.094 363.909 99.0625 364.82 99.0625C385.321 99.0625 401.904 114.998 401.904 134.612C401.904 144.403 397.066 153.765 389.99 160.45C382.911 167.139 373.653 171.093 364.872 170.164L364.846 170.161H364.82L280.566 170.161H280.441L280.331 170.22C274.413 173.374 267.275 175.22 259.584 175.22C238.987 175.22 222.5 162.033 222.5 145.996C222.5 131.247 236.432 118.915 254.706 117.022Z" fill="#FCEDFD" stroke="black"/>
<g id="cloudEyes">
<path id="Ellipse 4" d="M301 117C301 118.989 300.21 120.897 298.803 122.303C297.397 123.71 295.489 124.5 293.5 124.5C291.511 124.5 289.603 123.71 288.197 122.303C286.79 120.897 286 118.989 286 117L288.252 117C288.252 118.392 288.805 119.727 289.789 120.711C290.773 121.695 292.108 122.248 293.5 122.248C294.892 122.248 296.227 121.695 297.211 120.711C298.195 119.727 298.748 118.392 298.748 117L301 117Z" fill="black"/>
<path id="Ellipse 5" d="M331.975 117.069C331.975 119.058 331.185 120.966 329.778 122.372C328.372 123.779 326.464 124.569 324.475 124.569C322.486 124.569 320.578 123.779 319.172 122.372C317.765 120.966 316.975 119.058 316.975 117.069L319.227 117.069C319.227 118.461 319.78 119.795 320.764 120.78C321.748 121.764 323.083 122.317 324.475 122.317C325.867 122.317 327.201 121.764 328.186 120.78C329.17 119.795 329.723 118.461 329.723 117.069L331.975 117.069Z" fill="black"/>
</g>
</g>
<g id="smallClouds">
<path id="smallCloud-right" d="M760.327 124.5H760.253L760.182 124.522C756.015 125.792 751.383 126.5 746.5 126.5C737.335 126.5 729.06 124.004 723.091 119.995C717.118 115.984 713.5 110.496 713.5 104.5C713.5 99.4138 716.101 94.6974 720.537 90.9321C724.973 87.1659 731.222 84.3747 738.43 83.1641L738.663 83.1249L738.781 82.9192C744.632 72.6852 757.722 65.5 773 65.5C787.038 65.5 799.234 71.5676 805.659 80.4962L805.826 80.7285L806.111 80.702C807.547 80.5688 809.012 80.5 810.5 80.5C819.661 80.5 827.932 83.1055 833.901 87.2923C839.871 91.4802 843.5 97.2181 843.5 103.5C843.5 109.782 839.871 115.52 833.901 119.708C827.932 123.895 819.661 126.5 810.5 126.5C805.729 126.5 801.196 125.793 797.104 124.522L797.031 124.5H796.955H760.327Z" fill="#FCEDFD" stroke="black"/>
<path id="smallCloud" d="M411.71 167.488L411.196 167.435L411.266 166.923C411.361 166.226 411.41 165.52 411.41 164.805C411.41 158.97 408.148 153.644 402.785 149.757C397.422 145.87 389.989 143.451 381.756 143.451C368.844 143.451 357.95 149.391 353.853 157.568L353.704 157.865L353.371 157.842C352.891 157.809 352.406 157.793 351.917 157.793C340.894 157.793 332 166.305 332 176.756C332 181.966 334.592 186.963 338.399 190.538C342.209 194.117 347.176 196.216 351.864 195.722L351.89 195.72H351.917L397.685 195.72H397.81L397.92 195.778C401.1 197.463 404.941 198.451 409.083 198.451C420.202 198.451 429 191.384 429 182.902C429 175.101 421.569 168.503 411.71 167.488Z" fill="#FCEDFD" stroke="black"/>
</g>
<g id="sittingDown">
<path id="Vector 31" d="M466.571 514.563C465.004 516.321 447.162 549.999 428.499 543.571L447.872 555.414C460.7 517.48 483.8 550.939 498.779 529.744C489.828 533.162 499.916 515.247 502.815 510.846C495.643 513.38 490.124 534.736 478.433 524.918C489.51 525.886 484.005 525.694 496.03 512.439C483.103 518.625 480.992 498.385 466.571 514.563Z" fill="#9795EF" stroke="black"/>
<path id="Vector 27" d="M399.392 535.848C402.908 527.899 415.175 525.786 414.4 530.605C416.235 539.087 418.174 532.62 415.051 557.827L413.572 567.026C404.887 571.251 400.418 569.186 391.853 562.849L399.392 535.848Z" fill="#C4C4C4" stroke="black"/>
<path id="Vector 28" d="M394.855 552.703L391.887 562.639C400.132 569.134 405.031 571.414 413.607 566.815L414.864 558.991C408.068 552.682 404.832 550.119 394.855 552.703Z" fill="#E7E3E3" stroke="black"/>
<path id="Vector 23" d="M475.807 535.496C472.25 527.454 459.841 525.317 460.625 530.192C458.768 538.772 456.807 532.231 459.966 557.73L461.462 567.036C470.248 571.309 474.769 569.221 483.434 562.811L475.807 535.496Z" fill="#C4C4C4" stroke="black"/>
<path id="Ellipse 2" d="M469.599 529.263C469.599 541.009 466.905 548.808 461.451 553.689C455.984 558.582 447.635 560.643 436.082 560.643C424.523 560.643 417.292 558.578 412.918 553.727C408.531 548.86 406.899 541.063 406.899 529.263C406.899 517.524 409.69 506.94 415.029 499.306C420.356 491.689 428.228 486.992 438.479 486.992C448.729 486.992 456.485 491.688 461.697 499.302C466.922 506.935 469.599 517.52 469.599 529.263Z" fill="#C4C4C4" stroke="black"/>
<path id="Vector 24" d="M480.397 552.547L483.4 562.597C475.059 569.168 470.103 571.475 461.428 566.823L460.156 558.907C467.03 552.525 470.305 549.933 480.397 552.547Z" fill="#E7E3E3" stroke="black"/>
<path id="Vector 25" d="M455.499 507.347C450.537 531.405 448.146 542.248 441.932 552.885C446.641 557.003 450.143 557.439 456.966 556.958" stroke="black"/>
<path id="Vector 26" d="M441.995 552.849C442.018 554.242 450.628 558.64 457.966 556.94C457.648 559.413 457.333 561.562 456.48 562.258C449.038 563.387 445.251 563.145 439.766 557.758C439.819 555.73 441.995 552.849 441.995 552.849Z" fill="#E7E3E3" stroke="black"/>
<path id="Vector 29" d="M419.374 507.821C422.152 526.005 423.5 536.63 432.94 553.359C428.231 557.477 424.73 557.913 417.907 557.432" stroke="black"/>
<path id="Vector 30" d="M432.878 553.323C432.855 554.716 424.245 559.114 416.907 557.414C417.225 559.887 417.54 562.036 418.392 562.732C425.835 563.861 429.622 563.619 435.107 558.232C435.053 556.204 432.878 553.323 432.878 553.323Z" fill="#E7E3E3" stroke="black"/>
</g>
<g id="campFire">
<g id="firewood">
<rect id="Rectangle 6" x="495.704" y="448.001" width="24" height="2" transform="rotate(-39.5976 495.704 448.001)" fill="#83663B" stroke="black"/>
<rect id="Rectangle 9" x="505.041" y="451.039" width="24" height="2" transform="rotate(-74.5604 505.041 451.039)" fill="#83663B" stroke="black"/>
<rect id="Rectangle 7" x="523.026" y="449.734" width="24" height="2" transform="rotate(-139.764 523.026 449.734)" fill="#83663B" stroke="black"/>
<rect id="Rectangle 8" x="516.79" y="450.416" width="24" height="2" transform="rotate(-120.292 516.79 450.416)" fill="#83663B" stroke="black"/>
</g>
<g id="fire">
<path id="Subtract_2" d="M510 410.5C511.713 410.5 513.341 410.959 514.807 411.786C514.049 412.054 513.322 412.551 512.661 413.162C511.648 414.098 510.724 415.358 509.991 416.687C509.258 418.016 508.701 419.438 508.439 420.709C508.184 421.947 508.181 423.172 508.727 423.992C509.202 424.705 510.006 425.442 510.858 426.061C511.714 426.682 512.667 427.218 513.475 427.507C513.874 427.649 514.274 427.745 514.627 427.738C514.978 427.732 515.399 427.613 515.613 427.199C515.805 426.829 515.741 426.38 515.591 425.952C515.434 425.502 515.141 424.953 514.702 424.294C513.862 423.034 513.469 422.129 513.327 421.49C513.187 420.86 513.297 420.527 513.416 420.349C513.542 420.159 513.742 420.049 513.947 419.988C514.026 419.964 514.098 419.95 514.157 419.941C514.193 419.964 514.234 419.989 514.281 420.017C514.452 420.121 514.695 420.262 514.988 420.411C515.567 420.706 516.366 421.048 517.194 421.192C518.017 421.335 518.952 421.295 519.707 420.714C520.125 420.391 520.451 419.931 520.672 419.322C521.206 420.942 521.5 422.714 521.5 424.571C521.5 432.438 516.265 438.643 510 438.643C503.735 438.643 498.5 432.438 498.5 424.571C498.5 416.705 503.735 410.5 510 410.5Z" fill="#FFDD64" stroke="black"/>
<path id="Subtract_3" d="M514.526 431.749C515.213 431.484 515.837 431.026 516.378 430.352C516.192 431.913 515.787 433.236 515.128 434.246C514.212 435.65 512.773 436.5 510.571 436.5C506.149 436.5 502.5 432.616 502.5 427.742C502.5 425.087 503.588 422.717 505.295 421.115C505.214 423.124 505.398 425.124 505.809 426.43C506.107 427.381 506.796 428.42 507.675 429.33C508.558 430.245 509.668 431.066 510.849 431.554C512.029 432.042 513.322 432.213 514.526 431.749Z" fill="#FFC165" stroke="black"/>
</g>
</g>
<g id="head">
<g id="Vector 5">
<path d="M459.118 444.182C468.907 446.788 469.43 447.971 476.586 451.428C472.834 452.205 471.913 452.919 465.155 451.035C466.378 452.15 472.445 452.722 474.827 454.405C467.192 453.818 468.097 453.945 467.14 454.405C473.598 455.501 478.943 457.353 480.749 461.521C473.652 460.64 472.608 463.564 470.852 463.445C488.747 465.189 477.803 478.741 488.783 484.812C473.903 483.259 473.421 476.915 467.103 473.873C469.716 481.685 472.457 485.094 480.749 488.587H474.827L485.255 490.812C480.921 491.097 470.246 492.446 473.54 496.458C464.807 500.397 459.999 498.927 451.484 493.74L459.118 444.182Z" fill="#9795EF"/>
<path d="M459.118 444.182C468.907 446.788 469.43 447.971 476.586 451.428C472.834 452.205 471.913 452.919 465.155 451.035C466.378 452.15 472.445 452.722 474.827 454.405C467.192 453.818 468.097 453.945 467.14 454.405C473.598 455.501 478.943 457.353 480.749 461.521C473.534 460.625 472.575 463.663 470.763 463.437C488.783 465.144 477.784 478.731 488.783 484.812C473.903 483.259 473.421 476.915 467.103 473.873C469.716 481.685 472.457 485.094 480.749 488.587H474.827L485.255 490.812C480.921 491.097 470.246 492.446 473.54 496.458C464.807 500.397 459.999 498.927 451.484 493.74L459.118 444.182Z" stroke="black"/>
</g>
<path id="Vector 4" d="M412.076 431.693C403.457 428.069 401.791 429.495 405.478 438.291L411.344 449.841C415.166 443.032 418.074 440.275 424.337 436.849L412.076 431.693Z" fill="#C4C4C4" stroke="black"/>
<path id="Vector 7" d="M413.412 435.794C409.643 434.015 408.972 434.577 410.783 438.423L413.598 443.502C415.038 440.707 416.201 439.613 418.773 438.326L413.412 435.794Z" fill="#E7E3E3" stroke="black"/>
<path id="Vector 3" d="M469.225 438.208C473.194 430.094 471.884 428.335 463.113 431.158L451.544 435.869C458.001 440.22 460.547 443.313 463.58 449.752L469.225 438.208Z" fill="#C4C4C4" stroke="black"/>
<path id="Vector 6" d="M464.363 438.574C466.253 435.212 465.779 434.557 462.11 435.975L457.238 438.239C459.722 439.752 460.655 440.897 461.674 443.356L464.363 438.574Z" fill="#E7E3E3" stroke="black"/>
<path id="Ellipse 1" d="M466.64 462.815C466.64 471.252 464.649 480.203 460.046 487.029C455.458 493.832 448.266 498.545 437.768 498.545C427.27 498.545 420.078 493.832 415.49 487.029C410.887 480.203 408.896 471.252 408.896 462.815C408.896 446.061 421.844 432.519 437.768 432.519C453.692 432.519 466.64 446.061 466.64 462.815Z" fill="#C4C4C4" stroke="black"/>
<path id="Rectangle 2" d="M429.746 486.281C429.746 485.251 430.685 484.477 431.695 484.674L433.429 485.011C434.018 485.125 434.477 485.587 434.59 486.176V486.176C434.762 487.08 434.069 487.918 433.149 487.918H431.383C430.479 487.918 429.746 487.185 429.746 486.281V486.281Z" fill="#E7E3E3"/>
<path id="Rectangle 3" d="M445.839 486.22C445.839 485.191 444.9 484.417 443.889 484.613L442.156 484.95C441.567 485.065 441.107 485.527 440.995 486.116V486.116C440.822 487.02 441.515 487.857 442.436 487.857H444.202C445.106 487.857 445.839 487.124 445.839 486.22V486.22Z" fill="#E7E3E3"/>
<path id="Ellipse 3" d="M420.171 472.805C420.171 471.192 420.811 469.645 421.952 468.505C423.092 467.364 424.639 466.724 426.252 466.724C427.865 466.724 429.412 467.364 430.552 468.505C431.693 469.645 432.334 471.192 432.334 472.805L430.507 472.805C430.507 471.677 430.059 470.594 429.261 469.796C428.463 468.998 427.381 468.55 426.252 468.55C425.124 468.55 424.041 468.998 423.243 469.796C422.445 470.594 421.997 471.677 421.997 472.805L420.171 472.805Z" fill="#624A4A"/>
<path id="Ellipse 4_2" d="M442.167 472.805C442.167 471.192 442.808 469.645 443.949 468.505C445.089 467.364 446.636 466.724 448.249 466.724C449.862 466.724 451.409 467.364 452.549 468.505C453.69 469.645 454.331 471.192 454.331 472.805L452.504 472.805C452.504 471.677 452.056 470.594 451.258 469.796C450.46 468.998 449.378 468.55 448.249 468.55C447.12 468.55 446.038 468.998 445.24 469.796C444.442 470.594 443.994 471.677 443.994 472.805L442.167 472.805Z" fill="#624A4A"/>
<g id="sunGlasses">
<path id="Vector 33" d="M432.82 461.666H407.275V474.955C418.549 479.258 423.858 480.518 432.82 474.955L434.671 465.993H439.854L441.705 474.955C449.826 479.425 457.8 479.989 466.88 474.955L467.25 461.357L441.705 461.666L439.854 462.902H434.671L432.82 461.666Z" fill="#5B5B5B" stroke="black"/>
<path id="Vector 35" d="M431.896 463.83H409.8V473.589C418.822 476.998 423.282 477.132 429.958 473.589L431.896 463.83Z" fill="#FFE2E2" stroke="black"/>
<path id="Vector 36" d="M442.628 463.83H464.725V473.589C455.703 476.998 451.243 477.132 444.567 473.589L442.628 463.83Z" fill="#FFE2E2" stroke="black"/>
</g>
<path id="Vector 2" d="M451.649 435.012C422.494 425.126 409.208 444.846 411.407 450.021C413.348 447.692 437.157 456.103 450.355 465.549C446.085 461.667 448.275 460.613 440.65 456.879C447.123 458.573 449.345 460.096 452.943 462.961L449.32 458.432C456.53 466.399 460.426 465.563 471.187 471.113C467.564 464.384 460.676 464.013 461.483 458.432C461.728 462.206 465.979 465.301 474.681 471.113C471.187 461.149 465.753 439.794 451.649 435.012Z" fill="#9795EF" stroke="black"/>
<path id="Vector 1" d="M442.06 417.915C437.754 396.73 437.467 396.66 432.73 417.915L428.71 442.63C435.887 445.426 439.908 445.394 447.084 442.63L442.06 417.915Z" fill="#F4F0C6" stroke="black"/>
<path id="Vector 11" d="M440.805 412.481C438.605 414.681 435.629 414.163 433.17 417.268L431.488 426.067C434.206 422.185 440.805 423.091 442.357 419.598L440.805 412.481Z" stroke="black"/>
<path id="Vector 12" d="M443.781 426.456C440.028 430.596 434.464 428.138 430.194 432.925L429.159 439.654C433.817 434.737 441.193 437.583 445.204 432.925L443.781 426.456Z" stroke="black"/>
</g>
</g>
</svg>
